<?xml version="1.0" encoding="UTF-8" standalone="no"?>
<svg
   xmlns:dc="http://purl.org/dc/elements/1.1/"
   xmlns:cc="http://creativecommons.org/ns#"
   xmlns:rdf="http://www.w3.org/1999/02/22-rdf-syntax-ns#"
   xmlns:svg="http://www.w3.org/2000/svg"
   xmlns="http://www.w3.org/2000/svg"
   version="1.1"
   id="svg2"
   viewBox="0 0 1080 1080"
   height="12in"
   width="12in">
  <defs
     id="defs4" />
  <metadata
     id="metadata7">
    <rdf:RDF>
      <cc:Work
         rdf:about="">
        <dc:format>image/svg+xml</dc:format>
        <dc:type
           rdf:resource="http://purl.org/dc/dcmitype/StillImage" />
        <dc:title></dc:title>
      </cc:Work>
    </rdf:RDF>
  </metadata>
  <g
     transform="translate(0,27.63782)"
     id="layer1">
    <g
       transform="matrix(0.72254444,0,0,0.72254444,2906.0967,3458.0965)"
       id="layer1-9">
      <g
         transform="matrix(0.78552379,0,0,0.78552379,-2414.0471,-4243.1355)"
         id="layer1-2" />
      <path
         style="fill:#0b0c10"
         id="path3038"
         d="m -3242.1825,-3631.4665 c -1.4732,-5.1144 -10.8519,-37.0448 -20.8424,-70.9562 -9.9905,-33.9116 -18.1644,-63.1403 -18.1644,-64.9528 0,-1.8126 19.7309,-3.2956 43.847,-3.2956 32.9716,0 43.2468,1.5794 41.4281,6.368 -1.3306,3.5023 -11.0451,36.1698 -21.5882,72.5943 -10.5428,36.4244 -19.8063,66.9722 -20.5852,67.8838 -0.7796,0.9122 -2.6221,-2.527 -4.0949,-7.6415 z m -163.9516,-60.2423 c 8.9523,-120.8094 8.1515,-115.5973 17.1588,-111.6725 4.6455,2.0244 22.2012,8.4834 39.0125,14.3536 16.8112,5.8702 31.4106,11.1451 32.4427,11.7218 1.6954,0.9469 -75.8609,109.0579 -86.9879,121.2574 -2.813,3.0844 -3.4549,-10.9844 -1.6261,-35.6603 z m 293.3569,-17.7328 c -22.7141,-30.7672 -42.3497,-58.8497 -43.6344,-62.4057 -1.508,-4.174 8.916,-10.2905 29.4147,-17.2591 17.4628,-5.9365 35.5222,-12.3941 40.1326,-14.35 7.4378,-3.1554 8.7572,3.8054 11.7028,61.7371 1.8258,35.9114 4.4014,70.4514 5.7239,76.7558 1.322,6.3042 1.404,11.4621 0.1834,11.4621 -1.2221,0 -20.8073,-25.173 -43.521,-55.9402 z m -426.1025,-70.1446 c 9.3598,-21.7146 22.9566,-52.787 30.215,-69.0498 l 13.1968,-29.5686 33.2711,26.6621 c 18.2995,14.6641 33.2717,27.3516 33.2717,28.1944 0,2.0956 -121.3349,83.2431 -124.4684,83.2431 -1.377,0 5.1539,-17.7665 14.5138,-39.4812 z m 549.4798,-2.741 -62.2666,-40.5869 13.8703,-10.3839 c 7.6288,-5.7112 22.4636,-18.4892 32.9666,-28.3955 11.3883,-10.7418 20.7858,-16.0551 23.2826,-13.1644 6.0428,6.9973 58.5981,129.7944 56.323,131.6011 -1.0498,0.8342 -29.9292,-16.7476 -64.1759,-39.0704 z m -324.1644,-42.2623 c -69.9479,-16.9328 -150.3748,-77.5382 -185.3443,-139.6664 -114.6154,-203.6269 29.1387,-453.2454 261.0211,-453.2454 81.6924,0 148.2081,28.2212 209.4073,88.8471 62.825,62.236 90.281,127.6308 89.8836,214.0844 -0.3768,82.1586 -30.5462,153.9824 -88.9793,211.8387 -38.2539,37.8762 -97.9483,70.9586 -145.6093,80.6958 -36.5641,7.47 -104.0418,6.2422 -140.3791,-2.5542 z m 427.1857,-61.9989 c -39.2265,-9.8417 -72.1441,-18.6024 -73.1501,-19.4685 -1.0064,-0.8663 2.7065,-8.0109 8.2497,-15.8774 5.5437,-7.8665 15.173,-24.3649 21.3987,-36.6631 l 11.3192,-22.3604 48.2765,47.832 c 39.1143,38.7544 65.153,68.6368 56.6795,65.0468 -0.7994,-0.3382 -33.5472,-8.6678 -72.7735,-18.5094 z m -728.391,-38.1864 c 27.243,-28.7193 50.9735,-52.7089 52.7356,-53.3103 1.7616,-0.6011 12.6925,15.4458 24.2913,35.6603 l 21.0895,36.7537 -66.9386,16.4445 c -36.8157,9.0446 -70.0364,16.495 -73.8235,16.5567 -3.7877,0.062 15.4032,-23.3856 42.6457,-52.1049 z m -48.4955,-98.3 c -29.4198,-3.7027 -55.7831,-6.9821 -58.5849,-7.2875 -2.8019,-0.3048 25.6514,-15.4668 63.2294,-33.692 46.9942,-22.7921 69.4582,-31.3018 71.9565,-27.2587 1.9985,3.2329 5.0632,18.0473 6.8117,32.9209 1.7478,14.8737 4.5726,30.6767 6.2766,35.1179 3.8096,9.9272 -12.1189,9.9626 -89.6893,0.1997 z m 761.0339,-6.1339 c 1.7408,-7.7052 4.6216,-26.0448 6.401,-40.7547 1.7794,-14.7099 5.78,-26.6262 8.8906,-26.4806 3.1106,0.1463 34.3109,14.8094 69.3344,32.5864 72.3387,36.7169 73.841,33.0577 -17.8301,43.4379 -69.7114,7.8938 -70.5408,7.7847 -66.7959,-8.789 z m -755.9397,-139.0487 c -37.8254,-19.1952 -65.562,-35.02 -61.6373,-35.1662 3.9246,-0.1463 37.8576,-3.9679 75.4059,-8.4924 37.5483,-4.5245 69.3354,-7.1602 70.6385,-5.8571 2.1881,2.1877 -4.134,38.8604 -12.2218,70.9006 l -3.4117,13.5153 z m 767.2486,32.1936 c -1.704,-1.7037 -3.0979,-9.7241 -3.0979,-17.823 0,-8.0989 -2.5869,-24.998 -5.7484,-37.5536 -3.1615,-12.5556 -4.4361,-24.1404 -2.8325,-25.7438 2.4381,-2.4386 146.5478,12.4268 149.7237,15.4444 0.5763,0.5478 -29.5503,16.2463 -66.9493,34.8851 -37.3986,18.6389 -69.3921,32.4948 -71.0956,30.7909 z m -721.2568,-169.3571 c -28.7218,-30.9052 -50.4228,-56.1913 -48.2246,-56.1913 5.5249,0 141.8315,32.1392 144.4189,34.0519 1.1502,0.8503 -1.6358,5.6648 -6.1916,10.6989 -4.5559,5.034 -14.9208,22.3106 -23.0326,38.3923 l -14.7486,29.2395 z m 673.6272,16.2207 c -11.8839,-21.1954 -21.0538,-38.805 -20.3773,-39.1326 6.5667,-3.1794 142.2716,-33.9907 143.5513,-32.5928 0.9357,1.0237 -21.5328,26.2509 -49.9322,56.0615 l -51.6346,54.201 z m -562.0261,-75.8326 c -2.9797,-7.8378 -13.5744,-32.6259 -23.5435,-55.0847 -32.94,-74.2088 -33.3221,-75.2492 -26.056,-70.9443 11.6905,6.9265 113.4744,74.6275 117.2931,78.0171 2.0249,1.7974 -11.1587,16.5418 -29.297,32.7652 l -32.9787,29.497 z m 502.1651,-1.6307 c -7.9746,-8.3235 -23.3259,-21.2507 -34.1141,-28.7271 l -19.6159,-13.5935 62.5051,-41.9062 c 34.377,-23.0483 63.2329,-41.2716 64.1239,-40.4965 1.3307,1.1589 -53.891,134.6816 -57.3368,138.6365 -0.585,0.6718 -7.5875,-5.5897 -15.5622,-13.9132 z m -401.855,-97.7439 c -1.5655,-20.5146 -4.1866,-55.6387 -5.8249,-78.0537 l -2.9791,-40.7548 46.6152,62.7508 c 25.6383,34.5128 45.8149,63.4138 44.8373,64.2242 -0.9779,0.8106 -15.5322,6.139 -32.3434,11.8411 -16.8113,5.7021 -34.367,11.9254 -39.0125,13.8295 -7.2768,2.9827 -8.8402,-1.7012 -11.2926,-33.8371 z m 300.0095,30.3996 c -5.5584,-3.2226 -21.9484,-9.5232 -36.4209,-14.0013 l -26.3148,-8.1419 43.6804,-59.6695 c 24.0233,-32.8183 44.6886,-58.6605 45.9219,-57.4273 1.2333,1.2332 0.5751,34.455 -1.4636,73.8258 -3.8309,73.9876 -5.078,77.1981 -25.403,65.4142 z m -180.9309,-32.8497 c 0,-1.8471 9.5855,-35.3031 21.3015,-74.3466 l 21.3015,-70.9883 21.8369,73.0731 c 12.0103,40.1903 21.9106,73.6463 22.0003,74.3468 0.087,0.7002 -19.3223,1.2736 -43.1384,1.2736 -23.8159,0 -43.3018,-1.5113 -43.3018,-3.3586 z" />
    </g>
  </g>
</svg>
